<?xml version="1.0" encoding="UTF-8" standalone="no"?><!DOCTYPE svg PUBLIC "-//W3C//DTD SVG 1.1//EN" "http://www.w3.org/Graphics/SVG/1.1/DTD/svg11.dtd"><svg width="100%" height="100%" viewBox="0 0 512 512" version="1.1" xmlns="http://www.w3.org/2000/svg" xmlns:xlink="http://www.w3.org/1999/xlink" xml:space="preserve" xmlns:serif="http://www.serif.com/" style="fill-rule:evenodd;clip-rule:evenodd;stroke-linejoin:round;stroke-miterlimit:1.41421;"><path id="Shape" d="M494.933,76.8l-17.066,0c-0.019,-6.681 -3.934,-12.737 -10.018,-15.497l-4.071,-16.315c-2.851,-11.397 -13.093,-21.391 -24.84,-21.388l-126.942,0c-11.748,-0.003 -21.99,9.991 -24.841,21.388l-4.07,16.315c-6.085,2.76 -12,8.816 -12.018,15.497l-30.134,0c-0.018,-6.681 -3.933,-12.737 -10.018,-15.497l-4.07,-16.315c-2.851,-11.397 -15.093,-21.391 -26.841,-21.388l-126.942,0c-11.747,-0.003 -23.989,9.991 -26.84,21.388l-4.071,16.315c-6.084,2.76 -7.999,8.816 -8.018,15.497l-17.066,0c-9.426,0 -17.067,7.641 -17.067,17.067l0,17.066c0,9.426 7.641,17.067 17.067,17.067l17.066,0c0,9.426 5.641,17.067 15.067,17.067l0,298.666c0.028,23.553 19.114,44.639 42.667,44.667l89.333,0c23.552,-0.028 42.638,-21.114 42.667,-44.667l0,-298.666c9.425,0 17.066,-7.641 17.066,-17.067l30.134,0c0,9.426 7.641,17.067 17.066,17.067l0,298.666c0.029,23.553 19.115,44.639 42.667,44.667l89.333,0c23.553,-0.028 42.639,-21.114 42.667,-44.667l0,-298.666c9.426,0 15.067,-7.641 15.067,-17.067l17.066,0c9.426,0 17.067,-7.641 17.067,-17.067l0,-17.066c0,-9.426 -7.641,-17.067 -17.067,-17.067Zm-191.223,-27.665c0.948,-3.803 4.366,-6.471 8.286,-6.468l126.942,0c3.919,-0.003 7.337,2.665 8.285,6.468l2.654,10.598l-148.821,0l2.654,-10.598Zm-238.933,0c0.948,-3.803 4.366,-6.471 8.285,-6.468l126.942,0c3.92,-0.003 7.338,2.665 8.286,6.468l2.654,10.598l-148.821,0l2.654,-10.598Zm-47.71,61.798l0,-17.066l17.066,0l0,17.066l-17.066,0Zm187.733,332.8c0,14.139 -11.462,25.6 -25.6,25.6l-85.333,0c-14.139,0 -25.6,-11.461 -25.6,-25.6l0,-298.666l32.133,0l0,273.066c0,4.713 5.821,8.534 10.533,8.534c4.713,0 9.534,-3.821 9.534,-8.534l0,-273.066l32.133,0l0,273.066c0,4.713 4.821,8.534 9.533,8.534c4.713,0 9.534,-3.821 9.534,-8.534l0,-273.066l33.133,0l0,298.666Zm8.533,-315.733l-160.133,0l0,-51.2l168.667,0l0,51.2l-8.534,0Zm27.6,-17.067l0,-17.066l30.134,0l0,17.066l-30.134,0Zm202.8,332.8c0,14.139 -11.461,25.6 -25.6,25.6l-85.333,0c-14.138,0 -25.6,-11.461 -25.6,-25.6l0,-298.666l33.133,0l0,273.066c0,4.713 4.821,8.534 9.534,8.534c4.712,0 9.533,-3.821 9.533,-8.534l0,-273.066l32.133,0l0,273.066c0,4.713 4.821,8.534 9.534,8.534c4.712,0 9.533,-3.821 9.533,-8.534l0,-273.066l33.133,0l0,298.666Zm6.534,-315.733l-158.134,0l0,-51.2l166.667,0l0,51.2l-8.533,0Zm27.6,-17.067l0,-17.066l17.066,0l0,17.066l-17.066,0Z" style="fill:#fff;fill-rule:nonzero;"/></svg>