<?xml version="1.0" encoding="UTF-8" standalone="no"?><!DOCTYPE svg PUBLIC "-//W3C//DTD SVG 1.1//EN" "http://www.w3.org/Graphics/SVG/1.1/DTD/svg11.dtd"><svg width="100%" height="100%" viewBox="0 0 22 22" version="1.1" xmlns="http://www.w3.org/2000/svg" xmlns:xlink="http://www.w3.org/1999/xlink" xml:space="preserve" xmlns:serif="http://www.serif.com/" style="fill-rule:evenodd;clip-rule:evenodd;stroke-linecap:round;stroke-linejoin:round;stroke-miterlimit:1.5;"><g id="XMLID_977_"><path id="XMLID_1030_" d="M19.118,3.869l0.819,0c0.286,0 0.517,-0.232 0.517,-0.518c0,-0.285 -0.231,-0.517 -0.517,-0.517l-1.965,0c-0.286,0 -0.517,0.232 -0.517,0.517l0,1.965c0,0.286 0.231,0.518 0.517,0.518c0.286,0 0.517,-0.232 0.517,-0.518l0,-0.569c0.149,0.199 0.291,0.402 0.426,0.608c1.297,1.976 2.269,1.567 0.857,-0.579c-0.204,-0.311 -0.422,-0.613 -0.654,-0.907Z" style="fill:#fff;fill-rule:nonzero;"/><path d="M19.178,4.778c1.312,1.728 2.092,3.885 2.092,6.222c0,5.68 -4.602,10.291 -10.27,10.291c-5.668,0 -10.27,-4.611 -10.27,-10.291c0,-5.68 4.602,-10.291 10.27,-10.291c0.465,0 0.923,0.031 1.371,0.091" style="fill:none;stroke:#fff;stroke-width:1.13px;"/><path id="XMLID_1028_" d="M18.301,11.436l0.53,0c0.237,0 0.429,-0.192 0.429,-0.429c0,-0.237 -0.192,-0.429 -0.429,-0.429l-0.53,0c-0.237,0 -0.429,0.192 -0.429,0.429c0,0.237 0.192,0.429 0.429,0.429Z" style="fill:#fff;fill-rule:nonzero;"/><path id="XMLID_1004_" d="M2.31,10.993c0,0.237 0.193,0.429 0.43,0.429l0.529,0c0.237,0 0.43,-0.192 0.43,-0.429c0,-0.237 -0.193,-0.429 -0.43,-0.429l-0.529,0c-0.237,0 -0.43,0.192 -0.43,0.429Z" style="fill:#fff;fill-rule:nonzero;"/><path id="XMLID_1001_" d="M11.436,2.84l0,-0.53c0,-0.237 -0.192,-0.429 -0.429,-0.429c-0.237,0 -0.429,0.192 -0.429,0.429l0,0.53c0,0.237 0.192,0.429 0.429,0.429c0.237,0 0.429,-0.192 0.429,-0.429Z" style="fill:#fff;fill-rule:nonzero;"/><path id="XMLID_1415_" d="M10.564,18.731l0,0.529c0,0.237 0.192,0.43 0.429,0.43c0.237,0 0.429,-0.193 0.429,-0.43l0,-0.529c0,-0.237 -0.192,-0.43 -0.429,-0.43c-0.237,0 -0.429,0.193 -0.429,0.43Z" style="fill:#fff;fill-rule:nonzero;"/><path id="XMLID_996_" d="M8.848,8.24c-0.168,-0.167 -0.44,-0.167 -0.608,0c-0.167,0.168 -0.167,0.44 0,0.608l1.456,1.455c-0.112,0.208 -0.175,0.445 -0.175,0.697c0,0.816 0.663,1.479 1.479,1.479c0.816,0 1.479,-0.663 1.479,-1.479c0,-0.252 -0.063,-0.489 -0.175,-0.697l2.937,-2.936c0.167,-0.168 0.167,-0.44 0,-0.608c-0.168,-0.167 -0.44,-0.167 -0.608,0l-2.936,2.937c-0.208,-0.112 -0.445,-0.175 -0.697,-0.175c-0.252,0 -0.489,0.063 -0.697,0.175l-1.455,-1.456Zm2.772,2.76c0,0.342 -0.278,0.62 -0.62,0.62c-0.342,0 -0.62,-0.278 -0.62,-0.62c0,-0.342 0.278,-0.62 0.62,-0.62c0.342,0 0.62,0.278 0.62,0.62Z" style="fill:#fff;fill-rule:nonzero;stroke:#fff;stroke-width:0.04px;stroke-linecap:butt;stroke-miterlimit:1.41421;"/></g></svg>