<svg viewBox="0 0 512 512" xmlns="http://www.w3.org/2000/svg" fill-rule="evenodd" clip-rule="evenodd" stroke-linejoin="round" stroke-miterlimit="2">
	<path style="fill:#0EB1D2" id="surface1" d="M497 40.953h-65.703c.238-7.277.371-18.598.371-25.953 0-8.285-6.719-14-15-14H95.332c-8.281 0-15 5.715-15 14 0 7.355.133 18.676.371 25.953H15c-8.285 0-15 8.715-15 17 0 67.211 17.566 124.621 49.461 172.555 31.527 47.387 73.523 74.566 118.891 77.211 10.285 11.191 24.156 20.316 35.48 27.277v66.668h-28.164c-30.422 0-54.168 24.75-54.168 55.168v29.164h-1.066c-8.286 0-16 3.719-16 12 0 8.285 7.714 12 16 12h271.132c8.286 0 16-3.715 16-12 0-8.281-7.714-12-16-12H390.5v-29.164c0-30.418-23.746-55.168-54.168-55.168h-28.164v-66.668c11.324-6.957 25.199-16.086 35.484-27.277 45.364-2.645 87.36-29.824 118.891-77.211C494.438 182.574 512 125.164 512 57.953c0-8.285-6.715-17-15-17zM66.438 214.891c-26.309-39.536-44.766-95.246-42.122-150.938h58.063c5.41 68.461 21.48 134.742 46.598 184.973 4 8 15.183 27.558 19.523 34.676-26.949-2.422-63.039-40.118-82.062-68.711zM366.5 456.832V487h-221l-1-30.168c0-13.875 6.289-30.168 25.168-31.168h171.664c21.879 0 25.168 17.293 25.168 31.168zm-83.332-55.168h-54.336v-53.633c8.246 2.172 18.648 3.301 27.168 3.301s18.922-1.129 27.168-3.301v53.633zm7.289-82.32a14.59 14.59 0 00-1.945.984c-10.602 5.274-21.496 8.004-32.512 8.004-11.012 0-21.902-2.73-32.5-7.996a14.925 14.925 0 00-1.965-1c-11.762-6.219-30.14-17.609-40.902-29.949a15.18 15.18 0 00-1.91-2.235c-10.684-12.683-20.735-33.285-29.914-51.644C121.242 180.379 109.32 100.891 107.508 23h298.984c-1.816 77.891-16.738 157.383-44.301 212.508-9.179 18.359-19.23 38.961-29.91 51.644-.711.68-1.355 1.43-1.918 2.239-10.761 12.343-28.144 23.73-39.906 29.953zm157.106-104.453c-19.024 28.593-60.114 65.289-87.063 68.711 4.34-7.118 18.523-26.676 22.523-34.676 25.118-50.231 41.184-116.512 46.598-184.973h59.063c2.644 52.692-14.813 111.402-41.121 150.938z" fill-rule="nonzero" />
</svg>
