<svg viewBox="0 0 512 512" xmlns="http://www.w3.org/2000/svg" fill-rule="evenodd" clip-rule="evenodd" stroke-linejoin="round" stroke-miterlimit="2">
	<path style="fill:#0EB1D2" d="M255.829 512c-1.685 0-3.392-.405-4.928-1.216l-245.162-128A10.673 10.673 0 010 373.333v-240c0-3.69 1.92-7.125 5.056-9.066a10.682 10.682 0 0110.368-.47l245.163 122.667a10.684 10.684 0 015.888 9.536v245.333c0 3.734-1.942 7.19-5.142 9.131a10.513 10.513 0 01-5.504 1.536zM21.333 366.869l223.83 116.864V262.592l-223.83-112v216.277z" fill-rule="nonzero" />
	<path style="fill:#0EB1D2" d="M256.171 512c-1.92 0-3.84-.512-5.526-1.536a10.715 10.715 0 01-5.141-9.131V256c0-4.032 2.283-7.723 5.888-9.536l245.163-122.667c3.264-1.664 7.232-1.493 10.368.47a10.649 10.649 0 015.077 9.066v240c0 3.968-2.219 7.616-5.739 9.451l-245.162 128a10.588 10.588 0 01-4.928 1.216zm10.666-249.408v221.141l223.83-116.864V150.592l-223.83 112zm234.496 110.741h.214-.214z" fill-rule="nonzero" />
	<path style="fill:#0EB1D2" d="M10.667 144c-3.926 0-7.68-2.155-9.558-5.888-2.645-5.269-.49-11.669 4.779-14.315L251.392 1.131a10.705 10.705 0 019.536 0l245.163 122.666c5.269 2.646 7.402 9.046 4.778 14.315-2.645 5.269-9.024 7.381-14.314 4.779L256.171 22.592 15.445 142.869A10.62 10.62 0 0110.667 144z" fill-rule="nonzero" />
	<path style="fill:#0EB1D2" d="M384 320c-5.888 0-10.667-4.779-10.667-10.667V198.592L134.059 78.869c-5.27-2.624-7.403-9.045-4.758-14.314 2.646-5.27 9.046-7.382 14.315-4.779l245.163 122.667c3.605 1.834 5.888 5.525 5.888 9.557v117.333c0 5.888-4.779 10.667-10.667 10.667z" fill-rule="nonzero" />
</svg>
