<svg viewBox="0 0 512 512" xmlns="http://www.w3.org/2000/svg" fill-rule="evenodd" clip-rule="evenodd" stroke-linejoin="round" stroke-miterlimit="2">
<path style="fill:#0EB1D2" d="M279.893 512h-47.786c-16.15 0-29.782-12.096-31.702-28.16l-5.098-40.021a201.646 201.646 0 01-29.312-12.139l-31.872 24.768c-12.928 10.005-31.126 8.853-42.347-2.688l-33.6-33.6c-11.456-11.115-12.608-29.312-2.603-42.219l24.768-31.893a197.006 197.006 0 01-12.138-29.312l-40.107-5.099C12.096 309.675 0 296.043 0 279.893v-47.786c0-16.15 12.096-29.782 28.16-31.702l40.021-5.098a201.646 201.646 0 0112.139-29.312l-24.747-31.872c-10.026-12.928-8.853-31.147 2.71-42.368l33.6-33.6c11.114-11.456 29.333-12.587 42.218-2.603l31.872 24.789a200.83 200.83 0 0129.334-12.138l5.098-40.107C202.325 12.096 215.957 0 232.107 0h47.786c16.15 0 29.782 12.096 31.702 28.16l5.098 40.021a200.945 200.945 0 0129.334 12.139l31.872-24.768c12.949-10.005 31.125-8.853 42.346 2.709l33.6 33.6c11.456 11.115 12.608 29.312 2.603 42.219l-24.768 31.893a197.01 197.01 0 0112.139 29.312l40.106 5.099C499.904 202.325 512 215.957 512 232.107v47.786c0 16.15-12.096 29.782-28.16 31.702l-40.021 5.098a201.646 201.646 0 01-12.139 29.312l24.768 31.872c10.027 12.928 8.853 31.126-2.709 42.347l-33.6 33.6c-11.115 11.456-29.334 12.629-42.219 2.603l-31.893-24.768a197.006 197.006 0 01-29.312 12.138l-5.099 40.107c-1.941 16-15.573 28.096-31.723 28.096zM164.907 408.32c1.77 0 3.584.448 5.205 1.344 11.755 6.571 24.491 11.861 37.845 15.701a10.652 10.652 0 017.638 8.896l5.973 46.934c.64 5.354 5.269 9.472 10.539 9.472h47.786c5.27 0 9.899-4.118 10.518-9.366l5.994-47.018a10.65 10.65 0 017.638-8.896c13.354-3.84 26.09-9.131 37.845-15.702 3.733-2.09 8.384-1.728 11.733.896l37.334 29.014c4.288 3.328 10.304 3.05 13.973-.726l33.813-33.813c3.862-3.755 4.16-9.771.832-14.08l-29.013-37.333a10.649 10.649 0 01-.896-11.734c6.571-11.754 11.861-24.49 15.701-37.845a10.649 10.649 0 018.896-7.637l46.934-5.974c5.354-.661 9.472-5.29 9.472-10.56v-47.786c0-5.27-4.118-9.899-9.366-10.518l-47.018-5.994a10.65 10.65 0 01-8.896-7.638c-3.84-13.354-9.131-26.09-15.702-37.845a10.61 10.61 0 01.896-11.733l29.014-37.334c3.349-4.309 3.05-10.325-.704-13.952L405.077 73.28c-3.733-3.883-9.77-4.181-14.08-.832l-37.333 29.013c-3.392 2.624-8.021 2.987-11.755.896-11.712-6.57-24.448-11.84-37.845-15.701a10.648 10.648 0 01-7.637-8.896l-5.974-46.933c-.661-5.376-5.29-9.494-10.56-9.494h-47.786c-5.27 0-9.899 4.118-10.518 9.366l-5.994 47.018c-.534 4.224-3.542 7.723-7.638 8.918-13.397 3.84-26.133 9.13-37.845 15.68-3.733 2.112-8.363 1.728-11.755-.875l-37.333-29.013c-4.309-3.35-10.304-3.051-13.952.704l-33.813 33.834c-3.862 3.755-4.16 9.771-.832 14.08l29.013 37.334c2.624 3.37 2.987 8 .896 11.733-6.592 11.755-11.861 24.491-15.701 37.845a10.652 10.652 0 01-8.896 7.638l-46.934 5.973c-5.354.64-9.472 5.269-9.472 10.539v47.786c0 5.27 4.118 9.899 9.366 10.518l47.018 5.994a10.65 10.65 0 018.896 7.638c3.84 13.354 9.131 26.09 15.702 37.845a10.61 10.61 0 01-.896 11.733l-29.014 37.334c-3.349 4.309-3.05 10.325.704 13.952l33.814 33.813c3.733 3.861 9.728 4.16 14.08.832l37.333-29.013c1.941-1.451 4.245-2.219 6.571-2.219z" fill-rule="nonzero" />
<path style="fill:#0EB1D2" d="M256 362.667c-58.816 0-106.667-47.851-106.667-106.667S197.184 149.333 256 149.333 362.667 197.184 362.667 256 314.816 362.667 256 362.667zm0-192c-47.061 0-85.333 38.272-85.333 85.333s38.272 85.333 85.333 85.333 85.333-38.272 85.333-85.333-38.272-85.333-85.333-85.333z" fill-rule="nonzero" />
</svg>