<?xml version="1.0" encoding="UTF-8" standalone="no"?><!DOCTYPE svg PUBLIC "-//W3C//DTD SVG 1.1//EN" "http://www.w3.org/Graphics/SVG/1.1/DTD/svg11.dtd"><svg width="100%" height="100%" viewBox="0 0 72 72" version="1.1" xmlns="http://www.w3.org/2000/svg" xmlns:xlink="http://www.w3.org/1999/xlink" xml:space="preserve" xmlns:serif="http://www.serif.com/" style="fill-rule:evenodd;clip-rule:evenodd;stroke-linecap:round;stroke-linejoin:round;stroke-miterlimit:1.5;"><path d="M18.5,1c-9.659,0 -17.5,6.963 -17.5,15.539l0,38.922c0,8.576 7.841,15.539 17.5,15.539l35,0c9.659,0 17.5,-6.963 17.5,-15.539l0,-38.922c0,-8.576 -7.841,-15.539 -17.5,-15.539l-35,0Z" style="fill:none;stroke:#30355d;stroke-width:2px;"/><g><path d="M35.723,18.88c-0.089,0.037 -0.168,0.09 -0.236,0.158l-11.589,11.694c-0.283,0.286 -0.283,0.748 0,1.033c0.283,0.286 0.741,0.286 1.024,0l10.354,-10.446l0,31.126c0,0.404 0.324,0.731 0.724,0.731c0.4,0 0.724,-0.327 0.724,-0.731l0,-31.126l10.354,10.446c0.283,0.286 0.741,0.286 1.024,0c0.141,-0.142 0.212,-0.329 0.212,-0.516c0,-0.187 -0.071,-0.374 -0.212,-0.517l-11.589,-11.694c-0.067,-0.068 -0.147,-0.121 -0.236,-0.158c-0.177,-0.074 -0.377,-0.074 -0.554,0Z" style="fill:#30355d;fill-rule:nonzero;stroke:#30355d;stroke-width:0.65px;stroke-linecap:butt;stroke-miterlimit:1.41421;"/></g></svg>