<?xml version="1.0" encoding="UTF-8" standalone="no"?><!DOCTYPE svg PUBLIC "-//W3C//DTD SVG 1.1//EN" "http://www.w3.org/Graphics/SVG/1.1/DTD/svg11.dtd"><svg width="100%" height="100%" viewBox="0 0 54 54" version="1.1" xmlns="http://www.w3.org/2000/svg" xmlns:xlink="http://www.w3.org/1999/xlink" xml:space="preserve" xmlns:serif="http://www.serif.com/" style="fill-rule:evenodd;clip-rule:evenodd;stroke-linejoin:round;stroke-miterlimit:1.41421;"><path d="M53.414,26.569c-0.058,-0.138 -0.14,-0.262 -0.245,-0.367l-18.041,-18.042c-0.441,-0.441 -1.154,-0.441 -1.595,0c-0.441,0.441 -0.441,1.154 0,1.595l16.118,16.117l-48.023,0c-0.623,0 -1.127,0.506 -1.127,1.128c0,0.623 0.504,1.128 1.127,1.128l48.023,0l-16.118,16.117c-0.441,0.441 -0.441,1.154 0,1.595c0.22,0.22 0.509,0.33 0.798,0.33c0.288,0 0.577,-0.11 0.797,-0.33l18.041,-18.041c0.105,-0.104 0.187,-0.229 0.245,-0.368c0.114,-0.275 0.114,-0.586 0,-0.862Z" style="fill:#30355d;fill-rule:nonzero;stroke:#30355d;stroke-width:1px;"/></svg>