<?xml version="1.0" encoding="UTF-8" standalone="no"?><!DOCTYPE svg PUBLIC "-//W3C//DTD SVG 1.1//EN" "http://www.w3.org/Graphics/SVG/1.1/DTD/svg11.dtd"><svg width="100%" height="100%" viewBox="0 0 54 54" version="1.1" xmlns="http://www.w3.org/2000/svg" xmlns:xlink="http://www.w3.org/1999/xlink" xml:space="preserve" xmlns:serif="http://www.serif.com/" style="fill-rule:evenodd;clip-rule:evenodd;stroke-linejoin:round;stroke-miterlimit:1.41421;"><g><path d="M27.431,53.414c0.138,-0.058 0.262,-0.14 0.367,-0.245l18.042,-18.041c0.441,-0.441 0.441,-1.154 0,-1.595c-0.441,-0.441 -1.154,-0.441 -1.595,0l-16.117,16.118l0,-48.023c0,-0.623 -0.506,-1.127 -1.128,-1.127c-0.623,0 -1.128,0.504 -1.128,1.127l0,48.023l-16.117,-16.118c-0.441,-0.441 -1.154,-0.441 -1.595,0c-0.22,0.22 -0.33,0.509 -0.33,0.798c0,0.288 0.11,0.577 0.33,0.797l18.041,18.041c0.104,0.105 0.229,0.187 0.368,0.245c0.275,0.114 0.586,0.114 0.862,0Z" style="fill:#30355d;fill-rule:nonzero;stroke:#30355d;stroke-width:1px;"/></g></svg>