<?xml version="1.0" encoding="UTF-8" standalone="no"?>
<!DOCTYPE svg PUBLIC "-//W3C//DTD SVG 1.1//EN" "http://www.w3.org/Graphics/SVG/1.1/DTD/svg11.dtd">
<svg width="100%" height="100%" viewBox="0 0 81 72" version="1.1" xmlns="http://www.w3.org/2000/svg" xmlns:xlink="http://www.w3.org/1999/xlink" xml:space="preserve" xmlns:serif="http://www.serif.com/" style="fill-rule:evenodd;clip-rule:evenodd;stroke-linecap:round;stroke-linejoin:round;stroke-miterlimit:1.5;">
	<path d="M79.833,18.5c0,-9.659 -7.841,-17.5 -17.5,-17.5l-43.833,0c-9.659,0 -17.5,7.841 -17.5,17.5l0,35c0,9.659 7.841,17.5 17.5,17.5l43.833,0c9.659,0 17.5,-7.841 17.5,-17.5l0,-35Z" style="fill:none;stroke:#30355d;stroke-width:2px;" />
	<g>
		<path d="M57.537,35.723c-0.037,-0.089 -0.091,-0.168 -0.159,-0.236l-11.693,-11.589c-0.286,-0.283 -0.748,-0.283 -1.034,0c-0.286,0.283 -0.286,0.741 0,1.024l10.447,10.354l-31.126,0c-0.404,0 -0.731,0.324 -0.731,0.724c0,0.4 0.327,0.724 0.731,0.724l31.126,0l-10.447,10.354c-0.286,0.283 -0.286,0.741 0,1.024c0.143,0.141 0.33,0.212 0.517,0.212c0.187,0 0.374,-0.071 0.517,-0.212l11.693,-11.589c0.068,-0.067 0.122,-0.147 0.159,-0.236c0.074,-0.177 0.074,-0.377 0,-0.554Z" style="fill:#30355d;fill-rule:nonzero;stroke:#30355d;stroke-width:0.65px;stroke-linecap:butt;stroke-miterlimit:1.41421;" />
	</g>
</svg>
