<?xml version="1.0" encoding="UTF-8" standalone="no"?>
<!DOCTYPE svg PUBLIC "-//W3C//DTD SVG 1.1//EN" "http://www.w3.org/Graphics/SVG/1.1/DTD/svg11.dtd">
<svg width="100%" height="100%" viewBox="0 0 289 289" version="1.1" xmlns="http://www.w3.org/2000/svg" xmlns:xlink="http://www.w3.org/1999/xlink" xml:space="preserve" xmlns:serif="http://www.serif.com/" style="fill-rule:evenodd;clip-rule:evenodd;stroke-linejoin:round;stroke-miterlimit:1.41421;">
<path id="Subdirectory_Arrow_Right" d="M0,23.904c0,-6.641 5.39,-12.03 12.03,-12.03l168.051,0c6.641,0 12.03,5.39 12.03,12.03l0,211.709l75.49,-74.648c4.74,-4.704 12.427,-4.704 17.167,0c4.74,4.704 4.74,12.319 0,17.011l-96.098,95.027c-4.788,4.74 -12.884,4.547 -17.48,-0.313l-95.785,-94.715c-4.74,-4.704 -4.74,-12.319 0,-17.011c4.74,-4.704 12.427,-4.704 17.167,0l75.274,74.444l0,-199.473l-155.816,0c-6.64,0 -12.03,-5.378 -12.03,-12.031Z" style="fill:#0eb1d2;fill-rule:nonzero;" />
</svg>
