<svg width="100%" height="100%" viewBox="0 0 72 72" version="1.1" xmlns="http://www.w3.org/2000/svg" xmlns:xlink="http://www.w3.org/1999/xlink" xml:space="preserve" xmlns:serif="http://www.serif.com/" style="fill-rule:evenodd;clip-rule:evenodd;stroke-linecap:round;stroke-linejoin:round;stroke-miterlimit:1.5;">
<g>
<path id="Subdirectory_Arrow_Right" d="M21,23.379c0,-0.697 0.561,-1.263 1.252,-1.263l17.485,0c0.691,0 1.252,0.566 1.252,1.263l0,22.219l7.855,-7.835c0.493,-0.493 1.293,-0.493 1.786,0c0.493,0.494 0.493,1.293 0,1.786l-9.999,9.973c-0.498,0.497 -1.341,0.477 -1.819,-0.033l-9.966,-9.94c-0.493,-0.494 -0.493,-1.293 0,-1.786c0.493,-0.493 1.293,-0.493 1.786,0l7.832,7.813l0,-20.934l-16.212,0c-0.691,0 -1.252,-0.565 -1.252,-1.263Z" style="fill:#30355d;fill-rule:nonzero;" />
</g>
<path d="M71,18.5c0,-9.659 -7.841,-17.5 -17.5,-17.5l-35,0c-9.659,0 -17.5,7.841 -17.5,17.5l0,35c0,9.659 7.841,17.5 17.5,17.5l35,0c9.659,0 17.5,-7.841 17.5,-17.5l0,-35Z" style="fill:none;stroke:#30355d;stroke-width:2px;" />
</svg>
