<?xml version="1.0" encoding="UTF-8" standalone="no"?>
<!DOCTYPE svg PUBLIC "-//W3C//DTD SVG 1.1//EN" "http://www.w3.org/Graphics/SVG/1.1/DTD/svg11.dtd">
<svg width="100%" height="100%" viewBox="0 0 512 512" version="1.1" xmlns="http://www.w3.org/2000/svg" xmlns:xlink="http://www.w3.org/1999/xlink" xml:space="preserve" xmlns:serif="http://www.serif.com/" style="fill-rule:evenodd;clip-rule:evenodd;stroke-linejoin:round;stroke-miterlimit:2;">
    <path id="Shape" d="M494.933,76.8L477.867,76.8C477.848,70.119 473.933,64.063 467.849,61.303L463.778,44.988C460.927,33.591 450.685,23.597 438.938,23.6L311.996,23.6C300.248,23.597 290.006,33.591 287.155,44.988L283.085,61.303C277,64.063 271.085,70.119 271.067,76.8L240.933,76.8C240.915,70.119 237,64.063 230.915,61.303L226.845,44.988C223.994,33.591 211.752,23.597 200.004,23.6L73.062,23.6C61.315,23.597 49.073,33.591 46.222,44.988L42.151,61.303C36.067,64.063 34.152,70.119 34.133,76.8L17.067,76.8C7.641,76.8 0,84.441 0,93.867L0,110.933C0,120.359 7.641,128 17.067,128L34.133,128C34.133,137.426 39.774,145.067 49.2,145.067L49.2,443.733C49.228,467.286 68.314,488.372 91.867,488.4L181.2,488.4C204.752,488.372 223.838,467.286 223.867,443.733L223.867,145.067C233.292,145.067 240.933,137.426 240.933,128L271.067,128C271.067,137.426 278.708,145.067 288.133,145.067L288.133,443.733C288.162,467.286 307.248,488.372 330.8,488.4L420.133,488.4C443.686,488.372 462.772,467.286 462.8,443.733L462.8,145.067C472.226,145.067 477.867,137.426 477.867,128L494.933,128C504.359,128 512,120.359 512,110.933L512,93.867C512,84.441 504.359,76.8 494.933,76.8ZM303.71,49.135C304.658,45.332 308.076,42.664 311.996,42.667L438.938,42.667C442.857,42.664 446.275,45.332 447.223,49.135L449.877,59.733L301.056,59.733L303.71,49.135ZM64.777,49.135C65.725,45.332 69.143,42.664 73.062,42.667L200.004,42.667C203.924,42.664 207.342,45.332 208.29,49.135L210.944,59.733L62.123,59.733L64.777,49.135ZM17.067,110.933L17.067,93.867L34.133,93.867L34.133,110.933L17.067,110.933ZM204.8,443.733C204.8,457.872 193.338,469.333 179.2,469.333L93.867,469.333C79.728,469.333 68.267,457.872 68.267,443.733L68.267,145.067L100.4,145.067L100.4,418.133C100.4,422.846 106.221,426.667 110.933,426.667C115.646,426.667 120.467,422.846 120.467,418.133L120.467,145.067L152.6,145.067L152.6,418.133C152.6,422.846 157.421,426.667 162.133,426.667C166.846,426.667 171.667,422.846 171.667,418.133L171.667,145.067L204.8,145.067L204.8,443.733ZM221.867,128L53.2,128L53.2,76.8L221.867,76.8L221.867,128ZM240.933,110.933L240.933,93.867L271.067,93.867L271.067,110.933L240.933,110.933ZM443.733,443.733C443.733,457.872 432.272,469.333 418.133,469.333L332.8,469.333C318.662,469.333 307.2,457.872 307.2,443.733L307.2,145.067L340.333,145.067L340.333,418.133C340.333,422.846 345.154,426.667 349.867,426.667C354.579,426.667 359.4,422.846 359.4,418.133L359.4,145.067L391.533,145.067L391.533,418.133C391.533,422.846 396.354,426.667 401.067,426.667C405.779,426.667 410.6,422.846 410.6,418.133L410.6,145.067L443.733,145.067L443.733,443.733ZM458.8,128L292.133,128L292.133,76.8L458.8,76.8L458.8,128ZM477.867,110.933L477.867,93.867L494.933,93.867L494.933,110.933L477.867,110.933Z" style="fill:rgb(48,53,93);fill-rule:nonzero;"/>
</svg>
