<?xml version="1.0" encoding="UTF-8" standalone="no"?>
<!DOCTYPE svg PUBLIC "-//W3C//DTD SVG 1.1//EN" "http://www.w3.org/Graphics/SVG/1.1/DTD/svg11.dtd">
<svg width="100%" height="100%" viewBox="0 0 72 72" version="1.1" xmlns="http://www.w3.org/2000/svg" xmlns:xlink="http://www.w3.org/1999/xlink" xml:space="preserve" xmlns:serif="http://www.serif.com/" style="fill-rule:evenodd;clip-rule:evenodd;stroke-linecap:round;stroke-linejoin:round;stroke-miterlimit:1.5;">
    <g transform="matrix(1,0,0,1,-1129.86,-910.769)">
        <g transform="matrix(1,0,0,1,2,42.3653)">
            <g transform="matrix(32,0,0,32,1159.89,916.5)">
                <path d="M0.125,-0.634C0.16,-0.634 0.185,-0.66 0.185,-0.695C0.185,-0.728 0.16,-0.756 0.125,-0.756C0.09,-0.756 0.063,-0.728 0.063,-0.695C0.063,-0.66 0.09,-0.634 0.125,-0.634ZM0.081,-0L0.167,-0L0.167,-0.5L0.081,-0.5L0.081,-0Z" style="fill:rgb(197,197,197);fill-rule:nonzero;"/>
            </g>
        </g>
        <g transform="matrix(1,0,0,1,2,42.3653)">
            <g transform="matrix(1,0,0,1,1127.86,868.404)">
                <path d="M71,18.5C71,8.841 63.159,1 53.5,1L18.5,1C8.841,1 1,8.841 1,18.5L1,53.5C1,63.159 8.841,71 18.5,71L53.5,71C63.159,71 71,63.159 71,53.5L71,18.5Z" style="fill:none;stroke:rgb(197,197,197);stroke-width:2px;"/>
            </g>
        </g>
    </g>
</svg>
