<?xml version="1.0" encoding="UTF-8" standalone="no"?><!DOCTYPE svg PUBLIC "-//W3C//DTD SVG 1.1//EN" "http://www.w3.org/Graphics/SVG/1.1/DTD/svg11.dtd"><svg width="100%" height="100%" viewBox="0 0 72 72" version="1.1" xmlns="http://www.w3.org/2000/svg" xmlns:xlink="http://www.w3.org/1999/xlink" xml:space="preserve" xmlns:serif="http://www.serif.com/" style="fill-rule:evenodd;clip-rule:evenodd;stroke-linecap:round;stroke-linejoin:round;stroke-miterlimit:1.5;"><path d="M71,18.5c0,-9.659 -7.841,-17.5 -17.5,-17.5l-35,0c-9.659,0 -17.5,7.841 -17.5,17.5l0,35c0,9.659 7.841,17.5 17.5,17.5l35,0c9.659,0 17.5,-7.841 17.5,-17.5l0,-35Z" style="fill:none;stroke:#fff;stroke-width:2px;"/><path d="M43.109,20.5l-14.218,0c-4.627,0 -8.391,3.764 -8.391,8.391l0,14.218c0,4.627 3.764,8.391 8.391,8.391l14.218,0c4.627,0 8.391,-3.764 8.391,-8.391l0,-14.218c0,-4.627 -3.764,-8.391 -8.391,-8.391Zm6.574,22.609c0,3.625 -2.949,6.574 -6.574,6.574l-14.218,0c-3.625,0 -6.574,-2.949 -6.574,-6.574l0,-14.218c0,-3.625 2.949,-6.574 6.574,-6.574l14.218,0c3.625,0 6.574,2.949 6.574,6.574l0,14.218Z" style="fill:#fff;fill-rule:nonzero;"/><path d="M36,27.524c-4.674,0 -8.476,3.802 -8.476,8.476c0,4.674 3.802,8.476 8.476,8.476c4.674,0 8.476,-3.802 8.476,-8.476c0,-4.674 -3.802,-8.476 -8.476,-8.476Zm0,15.135c-3.672,0 -6.659,-2.987 -6.659,-6.659c0,-3.672 2.987,-6.659 6.659,-6.659c3.672,0 6.659,2.987 6.659,6.659c0,3.672 -2.987,6.659 -6.659,6.659Z" style="fill:#fff;fill-rule:nonzero;"/><path d="M44.679,24.513c-1.381,0 -2.505,1.124 -2.505,2.505c0,1.381 1.124,2.505 2.505,2.505c1.381,0 2.505,-1.124 2.505,-2.505c0,-1.381 -1.124,-2.505 -2.505,-2.505Zm0,3.192c-0.379,0 -0.687,-0.308 -0.687,-0.687c0,-0.379 0.308,-0.687 0.687,-0.687c0.379,0 0.688,0.308 0.688,0.687c0,0.379 -0.309,0.687 -0.688,0.687Z" style="fill:#fff;fill-rule:nonzero;"/></svg>