<?xml version="1.0" encoding="UTF-8" standalone="no"?><!DOCTYPE svg PUBLIC "-//W3C//DTD SVG 1.1//EN" "http://www.w3.org/Graphics/SVG/1.1/DTD/svg11.dtd"><svg width="100%" height="100%" viewBox="0 0 104 104" version="1.1" xmlns="http://www.w3.org/2000/svg" xmlns:xlink="http://www.w3.org/1999/xlink" xml:space="preserve" xmlns:serif="http://www.serif.com/" style="fill-rule:evenodd;clip-rule:evenodd;stroke-linejoin:round;stroke-miterlimit:1.41421;"><path d="M53.877,1.147c-1.043,-1.529 -3.604,-1.529 -4.64,0c-1.333,1.978 -32.702,48.505 -32.702,66.947c0,19.306 15.718,35.021 35.021,35.021c19.306,0 35.022,-15.716 35.022,-35.021c0.002,-18.442 -31.369,-64.974 -32.701,-66.947Zm-2.32,96.365c-16.221,0 -29.417,-13.188 -29.417,-29.418c0,-12.796 19.461,-45.122 29.417,-60.317c9.959,15.195 29.419,47.51 29.419,60.317c0,16.23 -13.2,29.418 -29.419,29.418Zm2.801,-8.405c0,1.548 -1.259,2.802 -2.801,2.802c-13.135,0 -23.813,-10.682 -23.813,-23.814c0,-1.543 1.261,-2.802 2.802,-2.802c1.541,0 2.801,1.259 2.801,2.802c0,10.047 8.169,18.211 18.211,18.211c1.541,-0.001 2.8,1.247 2.8,2.801Z" style="fill:#0eb1d2;fill-rule:nonzero;"/></svg>