<?xml version="1.0" encoding="UTF-8" standalone="no"?>
<!DOCTYPE svg PUBLIC "-//W3C//DTD SVG 1.1//EN" "http://www.w3.org/Graphics/SVG/1.1/DTD/svg11.dtd">
<svg width="100%" height="100%" viewBox="0 0 72 72" version="1.1" xmlns="http://www.w3.org/2000/svg" xmlns:xlink="http://www.w3.org/1999/xlink" xml:space="preserve" xmlns:serif="http://www.serif.com/" style="fill-rule:evenodd;clip-rule:evenodd;stroke-linecap:round;stroke-linejoin:round;stroke-miterlimit:1.5;">
    <g transform="matrix(1,0,0,1,-1748,-3083.21)">
        <g transform="matrix(1,0,0,1,841,1989.37)">
            <g transform="matrix(1,0,0,1,-579,-975.875)">
                <g id="_-" serif:id="-">
                    <path d="M1505,2105.71L1539,2105.71" style="fill:none;stroke:rgb(48,53,93);stroke-width:2.5px;"/>
                </g>
            </g>
            <g transform="matrix(0.37037,0,0,1.22743,552.815,411.192)">
                <path d="M1148,571.228C1148,563.359 1126.83,556.97 1100.75,556.97L1006.25,556.97C980.172,556.97 959,563.359 959,571.228L959,599.743C959,607.611 980.172,614 1006.25,614L1100.75,614C1126.83,614 1148,607.611 1148,599.743L1148,571.228Z" style="fill:none;stroke:rgb(48,53,93);stroke-width:2.21px;"/>
            </g>
        </g>
    </g>
</svg>
