<?xml version="1.0" encoding="UTF-8" standalone="no"?>
<!DOCTYPE svg PUBLIC "-//W3C//DTD SVG 1.1//EN" "http://www.w3.org/Graphics/SVG/1.1/DTD/svg11.dtd">
<svg width="100%" height="100%" viewBox="0 0 72 72" version="1.1" xmlns="http://www.w3.org/2000/svg" xmlns:xlink="http://www.w3.org/1999/xlink" xml:space="preserve" xmlns:serif="http://www.serif.com/" style="fill-rule:evenodd;clip-rule:evenodd;stroke-linecap:round;stroke-linejoin:round;stroke-miterlimit:1.5;">
    <g transform="matrix(1,0,0,1,-100,-2409.51)">
        <g transform="matrix(1,0,0,1,-682.75,-181.876)">
            <g transform="matrix(0.37037,0,0,1.22743,428.565,1908.74)">
                <path d="M1148,571.228C1148,563.359 1126.83,556.97 1100.75,556.97L1006.25,556.97C980.172,556.97 959,563.359 959,571.228L959,599.743C959,607.611 980.172,614 1006.25,614L1100.75,614C1126.83,614 1148,607.611 1148,599.743L1148,571.228Z" style="fill:none;stroke:rgb(48,53,93);stroke-width:2.21px;"/>
            </g>
        </g>
        <g transform="matrix(1,0,0,1,-682.75,-181.876)">
            <g transform="matrix(1,0,0,1,1,-79.3454)">
                <g transform="matrix(1,0,0,1,575.693,310.384)">
                    <text x="220px" y="2399px" style="font-family:'EuclidCircularA-Regular', 'Euclid Circular A', sans-serif;font-size:24px;fill:rgb(48,53,93);">PDF</text>
                </g>
                <g transform="matrix(0.745098,0,0,1,725.73,-2350.83)">
                    <path d="M98,5072.91L149,5072.91" style="fill:none;stroke:rgb(48,53,93);stroke-width:2.27px;"/>
                </g>
            </g>
        </g>
    </g>
</svg>
