<?xml version="1.0" encoding="UTF-8" standalone="no"?><!DOCTYPE svg PUBLIC "-//W3C//DTD SVG 1.1//EN" "http://www.w3.org/Graphics/SVG/1.1/DTD/svg11.dtd"><svg width="100%" height="100%" viewBox="0 0 72 72" version="1.1" xmlns="http://www.w3.org/2000/svg" xmlns:xlink="http://www.w3.org/1999/xlink" xml:space="preserve" xmlns:serif="http://www.serif.com/" style="fill-rule:evenodd;clip-rule:evenodd;stroke-linecap:round;stroke-linejoin:round;stroke-miterlimit:1.5;"><path d="M71,18.5c0,-9.659 -7.841,-17.5 -17.5,-17.5l-35,0c-9.659,0 -17.5,7.841 -17.5,17.5l0,35c0,9.659 7.841,17.5 17.5,17.5l35,0c9.659,0 17.5,-7.841 17.5,-17.5l0,-35Z" style="fill:none;stroke:#30355d;stroke-width:2px;"/><g><path d="M27.262,27.037c0,-3.073 -2.301,-5.422 -5.855,-5.422l-5.206,0l0,17.037l2.229,0l0,-6.216l2.977,0c3.554,0 5.855,-2.325 5.855,-5.399Zm-2.205,0c0,1.897 -1.297,3.338 -3.65,3.338l-2.977,0l0,-6.675l2.977,0c2.353,0 3.65,1.441 3.65,3.337Z" style="fill:#30355d;fill-rule:nonzero;"/><path d="M30.265,38.652l4.894,0c5.234,0 9.071,-3.645 9.071,-8.519c0,-4.873 -3.837,-8.518 -9.071,-8.518l-4.894,0l0,17.037Zm2.229,-2.085l0,-12.867l2.665,0c4.105,0 6.818,2.713 6.818,6.433c0,3.721 -2.713,6.434 -6.818,6.434l-2.665,0Z" style="fill:#30355d;fill-rule:nonzero;"/><path d="M47.569,38.652l2.229,0l0,-7.656l6.072,0l0,-2.109l-6.072,0l0,-5.163l7.68,0l0,-2.109l-9.909,0l0,17.037Z" style="fill:#30355d;fill-rule:nonzero;"/></g><path d="M17,51.348l38,0" style="fill:none;stroke:#30355d;stroke-width:2px;"/></svg>