<?xml version="1.0" encoding="UTF-8" standalone="no"?>
<!DOCTYPE svg PUBLIC "-//W3C//DTD SVG 1.1//EN" "http://www.w3.org/Graphics/SVG/1.1/DTD/svg11.dtd">
<svg width="100%" height="100%" viewBox="0 0 72 72" version="1.1" xmlns="http://www.w3.org/2000/svg" xmlns:xlink="http://www.w3.org/1999/xlink" xml:space="preserve" xmlns:serif="http://www.serif.com/" style="fill-rule:evenodd;clip-rule:evenodd;stroke-linecap:round;stroke-linejoin:round;stroke-miterlimit:1.5;">
    <g transform="matrix(1,0,0,1,-1338.52,-2155.44)">
        <g transform="matrix(1,0,0,1,-15.2399,-63.5)">
            <g transform="matrix(0.316742,0,0,0.752688,1308.83,1119.51)">
                <path d="M366,1485.25C366,1472.42 341.243,1462 310.75,1462L200.25,1462C169.757,1462 145,1472.42 145,1485.25L145,1531.75C145,1544.58 169.757,1555 200.25,1555L310.75,1555C341.243,1555 366,1544.58 366,1531.75L366,1485.25Z" style="fill:none;stroke:white;stroke-width:3.46px;"/>
            </g>
        </g>
        <g transform="matrix(1,0,0,1,-15.2399,-63.5)">
            <g id="skype" transform="matrix(0.630145,0,0,0.630145,1389.76,2254.94)">
                <g transform="matrix(1,0,0,1,-24.5975,-24.5975)">
                    <clipPath id="_clip1">
                        <rect x="0" y="0" width="49.195" height="49.195"/>
                    </clipPath>
                    <g clip-path="url(#_clip1)">
                        <g>
                            <path d="M30.757,21.106L30.657,21.083C24.918,20.058 21.553,18.518 21.544,18.518C20.985,18.201 20.309,17.703 20.257,17.134C20.21,16.616 20.682,16.055 20.925,15.825C26.508,12.982 28.981,16.464 29.085,16.615C30.652,18.931 32.254,20.199 33.846,20.385C35.23,20.545 36.067,19.817 36.139,19.75C37.289,18.741 37.873,17.56 37.875,16.242C37.879,13.685 35.595,11.637 35.518,11.569C28.83,5.335 18.424,8.911 18,9.063C9.573,11.894 11.327,19.806 11.345,19.885L11.378,19.996C13.873,26.899 24.382,27.795 24.828,27.83C29.85,28.227 30.062,30.628 30.071,30.763C30.252,33.291 25.812,34.04 25.187,34.133C20.804,33.889 19.773,32.181 19.772,32.181L19.67,32.014C17.378,28.982 16.485,27.93 14.528,27.88C12.888,27.826 11.93,28.494 11.411,29.054C10.1,30.467 10.269,32.554 10.292,32.787L10.315,32.918C12.246,40.995 22.863,40.909 23.241,40.903C23.861,40.941 24.456,40.959 25.029,40.959C38.324,40.959 39.235,31.298 39.241,31.214C39.816,25.307 33.943,22.019 30.757,21.106ZM37.251,31.042C37.224,31.396 36.419,39.702 23.287,38.907C23.191,38.904 13.895,38.972 12.281,32.533C12.269,32.269 12.254,31.089 12.879,30.416C13.231,30.037 13.756,29.856 14.478,29.881C15.387,29.904 15.768,30.172 18.034,33.165C18.363,33.73 19.949,35.873 25.18,36.136L25.262,36.14L25.343,36.131C27.966,35.833 32.333,34.338 32.07,30.676C32.067,30.501 31.922,26.384 24.986,25.836C24.89,25.829 15.387,25.024 13.282,19.375C13.146,18.727 12.174,13.13 18.653,10.954C18.75,10.92 28.346,7.616 34.174,13.049C34.65,13.474 35.884,14.878 35.878,16.246C35.875,16.973 35.529,17.628 34.804,18.265C34.802,18.266 34.526,18.45 34.079,18.401C33.523,18.336 32.35,17.873 30.748,15.505C30.713,15.453 27.193,10.316 19.896,14.109L19.726,14.221C19.561,14.355 18.121,15.582 18.265,17.299C18.363,18.456 19.134,19.452 20.627,20.296C20.772,20.363 24.223,21.961 30.248,23.043C30.863,23.233 37.786,25.525 37.251,31.042Z" style="fill:rgb(48,53,93);fill-rule:nonzero;"/>
                            <path d="M47.97,28.878C48.321,26.941 49.789,16.397 41.941,8.684C41.313,7.949 34.171,0.001 20.993,1.796C19.237,0.884 10.867,-2.865 3.798,4.288C3.732,4.356 -2.653,11.174 1.67,19.956C1.358,21.354 0.561,26.218 2.84,32.184C2.963,32.626 5.983,43.045 17.404,46.45C17.611,46.529 22.476,48.354 28.77,47.79C29.608,48.163 32.216,49.194 35.407,49.194C38.438,49.194 41.993,48.264 45.058,44.954C45.486,44.52 51.376,38.296 47.97,28.878ZM43.626,43.559L43.601,43.585C37.678,49.997 29.737,46.052 29.402,45.88L29.138,45.745L28.846,45.774C22.912,46.365 18.164,44.599 18.048,44.557C7.64,41.453 4.794,31.744 4.738,31.56C2.306,25.183 3.677,20.16 3.691,20.112L3.802,19.728L3.617,19.374C-0.371,11.722 5.013,5.914 5.232,5.683C11.997,-1.165 19.953,3.488 20.288,3.688L20.596,3.875L20.952,3.822C33.533,1.965 40.164,9.676 40.439,10.004L40.509,10.08C48.234,17.637 45.982,28.641 45.958,28.751L45.896,29.04L46,29.315C49.202,37.788 43.856,43.327 43.626,43.559Z" style="fill:rgb(48,53,93);fill-rule:nonzero;"/>
                        </g>
                    </g>
                </g>
            </g>
        </g>
    </g>
</svg>
