<?xml version="1.0" encoding="UTF-8" standalone="no"?><!DOCTYPE svg PUBLIC "-//W3C//DTD SVG 1.1//EN" "http://www.w3.org/Graphics/SVG/1.1/DTD/svg11.dtd"><svg width="100%" height="100%" viewBox="0 0 72 72" version="1.1" xmlns="http://www.w3.org/2000/svg" xmlns:xlink="http://www.w3.org/1999/xlink" xml:space="preserve" xmlns:serif="http://www.serif.com/" style="fill-rule:evenodd;clip-rule:evenodd;stroke-linecap:round;stroke-linejoin:round;stroke-miterlimit:1.5;"><path d="M71,18.5c0,-9.659 -7.841,-17.5 -17.5,-17.5l-35,0c-9.659,0 -17.5,7.841 -17.5,17.5l0,35c0,9.659 7.841,17.5 17.5,17.5l35,0c9.659,0 17.5,-7.841 17.5,-17.5l0,-35Z" style="fill:none;stroke:#fff;stroke-width:2px;"/><path d="M29.908,40.794l16.801,0c1.906,0 3.46,-1.542 3.46,-3.433l0,-7.015l0,-0.075c0,-0.012 0,-0.025 -0.007,-0.037c0,-0.012 -0.006,-0.031 -0.006,-0.043c0,-0.013 -0.006,-0.025 -0.006,-0.038c-0.006,-0.012 -0.006,-0.025 -0.013,-0.043c-0.006,-0.013 -0.006,-0.025 -0.012,-0.038c-0.006,-0.012 -0.006,-0.025 -0.013,-0.037c-0.006,-0.012 -0.012,-0.025 -0.018,-0.043c-0.007,-0.013 -0.013,-0.025 -0.019,-0.032c-0.007,-0.012 -0.013,-0.024 -0.019,-0.037c-0.006,-0.012 -0.013,-0.019 -0.019,-0.031c-0.006,-0.012 -0.019,-0.025 -0.025,-0.037c-0.006,-0.013 -0.012,-0.019 -0.025,-0.031c-0.006,-0.013 -0.019,-0.019 -0.025,-0.032c-0.006,-0.012 -0.019,-0.018 -0.025,-0.031c-0.006,-0.012 -0.019,-0.018 -0.025,-0.024c-0.013,-0.013 -0.019,-0.019 -0.032,-0.032c-0.012,-0.006 -0.018,-0.018 -0.031,-0.024c-0.012,-0.007 -0.025,-0.019 -0.037,-0.025c-0.013,-0.007 -0.019,-0.013 -0.032,-0.019c-0.012,-0.006 -0.025,-0.012 -0.037,-0.025l-0.113,-0.056c-0.013,-0.006 -0.025,-0.006 -0.038,-0.012c-0.012,-0.006 -0.031,-0.013 -0.044,-0.013c-0.012,0 -0.025,-0.006 -0.031,-0.006c-0.019,-0.006 -0.031,-0.006 -0.05,-0.006c-0.006,0 -0.013,-0.006 -0.025,-0.006l-21.296,-2.917l0,-2.948c0,-0.031 0,-0.062 -0.006,-0.087c0,-0.006 0,-0.012 -0.006,-0.025c0,-0.018 -0.006,-0.037 -0.006,-0.056c-0.007,-0.018 -0.007,-0.031 -0.013,-0.05c0,-0.012 -0.006,-0.018 -0.006,-0.031c-0.006,-0.018 -0.013,-0.037 -0.019,-0.056c0,-0.006 -0.006,-0.018 -0.006,-0.024c-0.006,-0.019 -0.013,-0.032 -0.025,-0.05c-0.007,-0.006 -0.007,-0.019 -0.013,-0.025c-0.006,-0.013 -0.012,-0.025 -0.025,-0.037c-0.006,-0.013 -0.012,-0.019 -0.019,-0.031c-0.006,-0.013 -0.012,-0.019 -0.018,-0.032c-0.007,-0.012 -0.019,-0.024 -0.026,-0.037l-0.075,-0.075c-0.012,-0.012 -0.025,-0.024 -0.044,-0.037c-0.006,-0.006 -0.018,-0.012 -0.025,-0.019c-0.012,-0.012 -0.025,-0.018 -0.037,-0.031c-0.019,-0.012 -0.038,-0.024 -0.05,-0.031c-0.007,-0.006 -0.013,-0.006 -0.019,-0.012c-0.025,-0.013 -0.057,-0.025 -0.082,-0.037l-4.618,-1.928c-0.433,-0.181 -0.928,0.018 -1.11,0.447c-0.181,0.43 0.019,0.921 0.451,1.101l4.099,1.717l0,18.395c0,1.742 1.316,3.184 3.015,3.402c-0.308,0.51 -0.489,1.107 -0.489,1.741c0,1.872 1.535,3.39 3.415,3.39c1.88,0 3.416,-1.524 3.416,-3.39c0,-0.621 -0.169,-1.212 -0.47,-1.71l7.608,0c-0.301,0.504 -0.47,1.089 -0.47,1.71c0,1.872 1.535,3.39 3.415,3.39c1.88,0 3.416,-1.524 3.416,-3.39c0,-1.865 -1.536,-3.389 -3.416,-3.389l-15.98,0c-0.978,0 -1.768,-0.79 -1.768,-1.754l0,-2.276c0.514,0.299 1.122,0.473 1.768,0.473Zm4.211,6.94c0,0.946 -0.777,1.71 -1.723,1.71c-0.947,0 -1.724,-0.771 -1.724,-1.71c0,-0.939 0.777,-1.71 1.724,-1.71c0.946,0 1.723,0.765 1.723,1.71Zm13.499,0c0,0.946 -0.777,1.71 -1.723,1.71c-0.947,0 -1.724,-0.771 -1.724,-1.71c0,-0.939 0.777,-1.71 1.724,-1.71c0.946,0 1.723,0.765 1.723,1.71Zm-0.909,-8.619l-16.801,0c-0.978,0 -1.768,-0.79 -1.768,-1.754l0,-4.136l0,-4.627l0,-0.31l20.337,2.779l0,6.288c0,0.976 -0.796,1.76 -1.768,1.76Z" style="fill:#fff;fill-rule:nonzero;"/></svg>