<?xml version="1.0" encoding="UTF-8" standalone="no"?><!DOCTYPE svg PUBLIC "-//W3C//DTD SVG 1.1//EN" "http://www.w3.org/Graphics/SVG/1.1/DTD/svg11.dtd"><svg width="100%" height="100%" viewBox="0 0 344 344" version="1.1" xmlns="http://www.w3.org/2000/svg" xmlns:xlink="http://www.w3.org/1999/xlink" xml:space="preserve" xmlns:serif="http://www.serif.com/" style="fill-rule:evenodd;clip-rule:evenodd;stroke-linejoin:round;stroke-miterlimit:1.41421;"><g><path d="M281.339,134.202c0.024,-0.781 0.036,-1.549 0.036,-2.306c0,-50.235 -40.869,-91.104 -91.104,-91.104c-48.055,0 -87.539,37.4 -90.875,84.62c-8.771,-3.727 -18.227,-5.661 -27.897,-5.661c-39.425,0 -71.499,32.074 -71.499,71.499c0,17.116 6.143,33.676 17.297,46.63c2.703,3.139 7.439,3.492 10.577,0.79c3.139,-2.703 3.493,-7.438 0.79,-10.577c-8.811,-10.234 -13.664,-23.318 -13.664,-36.843c0,-31.153 25.345,-56.498 56.499,-56.498c11.192,0 22.02,3.279 31.313,9.482c2.382,1.59 5.461,1.685 7.937,0.244c2.475,-1.441 3.914,-4.166 3.708,-7.022l-0.04,-0.552c-0.128,-1.752 -0.249,-3.408 -0.249,-5.008c0,-41.964 34.14,-76.104 76.104,-76.104c41.963,0 76.104,34.14 76.104,76.104c0,2.75 -0.197,5.733 -0.602,9.121c-0.269,2.248 0.492,4.496 2.07,6.119c1.578,1.623 3.804,2.452 6.059,2.24c1.761,-0.161 3.22,-0.235 4.593,-0.235c27.465,0 49.809,22.344 49.809,49.809c0,13.304 -5.181,25.813 -14.588,35.221c-2.929,2.929 -2.929,7.678 0,10.606c1.464,1.465 3.384,2.197 5.303,2.197c1.919,0 3.839,-0.732 5.303,-2.197c12.241,-12.241 18.982,-28.516 18.982,-45.827c-0.001,-34.783 -27.544,-63.254 -61.966,-64.748Z" style="fill:#30355d;fill-rule:nonzero;"/><path d="M248.806,208.479c-25.895,0 -46.962,21.067 -46.962,46.962c0,4.142 3.358,7.5 7.5,7.5c4.142,0 7.5,-3.358 7.5,-7.5c0,-17.624 14.338,-31.962 31.962,-31.962c17.625,0 31.963,14.338 31.963,31.962c0,17.625 -14.338,31.963 -31.963,31.963c-0.414,0 -0.818,0.042 -1.214,0.107l-182.842,0c-4.142,0 -7.5,3.358 -7.5,7.5c0,4.142 3.358,7.5 7.5,7.5l184.056,0c0.498,0 0.984,-0.051 1.456,-0.144c25.223,-0.774 45.507,-21.519 45.507,-46.926c0,-25.894 -21.067,-46.962 -46.963,-46.962Z" style="fill:#30355d;fill-rule:nonzero;"/><path d="M138.283,262.852c25.223,-0.774 45.507,-21.519 45.507,-46.925c0,-25.896 -21.067,-46.963 -46.963,-46.963c-25.895,0 -46.962,21.067 -46.962,46.963c0,4.142 3.358,7.5 7.5,7.5c4.142,0 7.5,-3.358 7.5,-7.5c0,-17.625 14.338,-31.963 31.962,-31.963c17.625,0 31.963,14.338 31.963,31.963c0,17.624 -14.338,31.962 -31.963,31.962c-0.414,0 -0.818,0.042 -1.214,0.107l-93.961,0c-4.142,0 -7.5,3.358 -7.5,7.5c0,4.142 3.358,7.5 7.5,7.5l95.175,0c0.498,0 0.985,-0.052 1.456,-0.144Z" style="fill:#30355d;fill-rule:nonzero;"/></g></svg>