<?xml version="1.0" encoding="UTF-8" standalone="no"?><!DOCTYPE svg PUBLIC "-//W3C//DTD SVG 1.1//EN" "http://www.w3.org/Graphics/SVG/1.1/DTD/svg11.dtd"><svg width="100%" height="100%" viewBox="0 0 72 72" version="1.1" xmlns="http://www.w3.org/2000/svg" xmlns:xlink="http://www.w3.org/1999/xlink" xml:space="preserve" xmlns:serif="http://www.serif.com/" style="fill-rule:evenodd;clip-rule:evenodd;stroke-linecap:round;stroke-linejoin:round;stroke-miterlimit:1.5;"><path d="M71,18.5c0,-9.659 -7.841,-17.5 -17.5,-17.5l-35,0c-9.659,0 -17.5,7.841 -17.5,17.5l0,35c0,9.659 7.841,17.5 17.5,17.5l35,0c9.659,0 17.5,-7.841 17.5,-17.5l0,-35Z" style="fill:none;stroke:#fff;stroke-width:2px;"/><g><path d="M40.747,34.62l-6.813,-3.73c-0.392,-0.214 -0.856,-0.206 -1.24,0.022c-0.384,0.228 -0.613,0.631 -0.613,1.077l0,7.393c0,0.444 0.227,0.846 0.609,1.074c0.199,0.119 0.42,0.179 0.643,0.179c0.202,0 0.405,-0.051 0.593,-0.151l6.813,-3.665c0.406,-0.217 0.658,-0.637 0.659,-1.097c0.001,-0.459 -0.248,-0.882 -0.651,-1.102Zm-6.859,3.832l0,-5.525l5.093,2.786l-5.093,2.739Z" style="fill:#fff;fill-rule:nonzero;"/><path d="M51.194,29.832l-0.001,-0.014c-0.026,-0.248 -0.286,-2.456 -1.359,-3.579c-1.241,-1.322 -2.648,-1.483 -3.325,-1.559c-0.055,-0.006 -0.106,-0.013 -0.152,-0.018l-0.054,-0.007c-4.079,-0.296 -10.236,-0.337 -10.298,-0.337l-0.005,0l-0.005,0c-0.062,0 -6.221,0.041 -10.334,0.337l-0.055,0.007c-0.044,0.005 -0.092,0.011 -0.145,0.018c-0.668,0.076 -2.059,0.237 -3.305,1.606c-1.021,1.111 -1.318,3.271 -1.347,3.514l-0.004,0.032c-0.01,0.104 -0.227,2.563 -0.227,5.032l0,2.307c0,2.469 0.217,4.929 0.227,5.033l0.002,0.015c0.026,0.244 0.286,2.412 1.354,3.535c1.167,1.278 2.643,1.446 3.435,1.537c0.125,0.016 0.233,0.028 0.307,0.04l0.072,0.011c2.355,0.224 9.735,0.334 10.049,0.338l0.01,0.002l0.009,-0.003c0.061,0 6.219,-0.041 10.296,-0.337l0.054,-0.004c0.051,-0.008 0.109,-0.015 0.174,-0.02c0.664,-0.07 2.049,-0.219 3.275,-1.566c1.023,-1.112 1.318,-3.274 1.349,-3.517l0.003,-0.032c0.009,-0.103 0.228,-2.563 0.228,-5.032l0,-2.307c0,-2.469 -0.219,-4.928 -0.228,-5.032Zm-1.58,7.339c0,2.286 -0.199,4.639 -0.218,4.855c-0.077,0.596 -0.389,1.963 -0.887,2.504c-0.768,0.845 -1.557,0.929 -2.133,0.99c-0.071,0.006 -0.134,0.015 -0.193,0.021c-3.944,0.286 -9.869,0.329 -10.143,0.33c-0.306,-0.004 -7.578,-0.115 -9.862,-0.327c-0.117,-0.019 -0.242,-0.034 -0.376,-0.049c-0.675,-0.076 -1.601,-0.183 -2.311,-0.965l-0.018,-0.018c-0.489,-0.51 -0.791,-1.788 -0.868,-2.479c-0.015,-0.163 -0.219,-2.545 -0.219,-4.862l0,-2.307c0,-2.283 0.199,-4.634 0.218,-4.854c0.092,-0.701 0.41,-1.985 0.887,-2.504c0.791,-0.871 1.625,-0.968 2.178,-1.031c0.052,-0.007 0.102,-0.012 0.147,-0.018c4.002,-0.287 9.97,-0.33 10.184,-0.331c0.214,0.001 6.18,0.044 10.145,0.331c0.05,0.006 0.103,0.013 0.159,0.019c0.569,0.065 1.426,0.162 2.215,1.002l0.006,0.008c0.49,0.511 0.793,1.811 0.87,2.515c0.013,0.155 0.219,2.54 0.219,4.863l0,2.307Z" style="fill:#fff;fill-rule:nonzero;"/></g></svg>