<?xml version="1.0" encoding="UTF-8" standalone="no"?>
<!DOCTYPE svg PUBLIC "-//W3C//DTD SVG 1.1//EN" "http://www.w3.org/Graphics/SVG/1.1/DTD/svg11.dtd">
<svg width="100%" height="100%" viewBox="0 0 475 475" version="1.1" xmlns="http://www.w3.org/2000/svg" xmlns:xlink="http://www.w3.org/1999/xlink" xml:space="preserve" xmlns:serif="http://www.serif.com/" style="fill-rule:evenodd;clip-rule:evenodd;stroke-linejoin:round;stroke-miterlimit:2;">
    <g transform="matrix(1,0,0,1,-18.9522,-18.9522)">
        <path d="M378,238.84L456.376,238.84C459.241,246.07 466.267,250.844 474.044,250.844C484.469,250.844 493.048,242.265 493.048,231.84C493.048,221.415 484.469,212.836 474.044,212.836C466.267,212.836 459.241,217.61 456.376,224.84L378,224.84L378,190.48L428.52,190.48C432.359,190.478 435.518,187.319 435.52,183.48L435.52,137.36L456.376,137.36C459.241,144.59 466.267,149.364 474.044,149.364C484.469,149.364 493.048,140.785 493.048,130.36C493.048,119.935 484.469,111.356 474.044,111.356C466.267,111.356 459.241,116.13 456.376,123.36L428.52,123.36C424.681,123.362 421.522,126.521 421.52,130.36L421.52,176.48L378,176.48L378,141C377.998,137.161 374.839,134.002 371,134L335.52,134L335.52,90.48L381.64,90.48C385.479,90.478 388.638,87.319 388.64,83.48L388.64,55.624C395.866,52.76 400.636,45.737 400.636,37.965C400.636,27.544 392.061,18.969 381.64,18.969C371.219,18.969 362.644,27.544 362.644,37.965C362.644,45.737 367.414,52.76 374.64,55.624L374.64,76.48L328.52,76.48C324.681,76.482 321.522,79.641 321.52,83.48L321.52,134L287.16,134L287.16,55.628C294.386,52.764 299.156,45.741 299.156,37.969C299.156,27.548 290.581,18.973 280.16,18.973C269.739,18.973 261.164,27.548 261.164,37.969C261.164,45.741 265.934,52.764 273.16,55.628L273.16,134L238.84,134L238.84,55.624C246.07,52.759 250.844,45.733 250.844,37.956C250.844,27.531 242.265,18.952 231.84,18.952C221.415,18.952 212.836,27.531 212.836,37.956C212.836,45.733 217.61,52.759 224.84,55.624L224.84,134L190.48,134L190.48,83.48C190.478,79.641 187.319,76.482 183.48,76.48L137.36,76.48L137.36,55.624C144.59,52.759 149.364,45.733 149.364,37.956C149.364,27.531 140.785,18.952 130.36,18.952C119.935,18.952 111.356,27.531 111.356,37.956C111.356,45.733 116.13,52.759 123.36,55.624L123.36,83.48C123.362,87.319 126.521,90.478 130.36,90.48L176.48,90.48L176.48,134L141,134C137.161,134.002 134.002,137.161 134,141L134,176.48L90.48,176.48L90.48,130.36C90.478,126.521 87.319,123.362 83.48,123.36L55.628,123.36C52.764,116.132 45.739,111.36 37.964,111.36C27.541,111.36 18.964,119.937 18.964,130.36C18.964,140.783 27.541,149.36 37.964,149.36C45.739,149.36 52.764,144.588 55.628,137.36L76.48,137.36L76.48,183.48C76.482,187.319 79.641,190.478 83.48,190.48L134,190.48L134,224.84L55.628,224.84C52.764,217.614 45.741,212.844 37.969,212.844C27.548,212.844 18.973,221.419 18.973,231.84C18.973,242.261 27.548,250.836 37.969,250.836C45.741,250.836 52.764,246.066 55.628,238.84L134,238.84L134,273.16L55.624,273.16C52.759,265.93 45.733,261.156 37.956,261.156C27.531,261.156 18.952,269.735 18.952,280.16C18.952,290.585 27.531,299.164 37.956,299.164C45.733,299.164 52.759,294.39 55.624,287.16L134,287.16L134,321.52L83.48,321.52C79.641,321.522 76.482,324.681 76.48,328.52L76.48,374.64L55.624,374.64C52.759,367.41 45.733,362.636 37.956,362.636C27.531,362.636 18.952,371.215 18.952,381.64C18.952,392.065 27.531,400.644 37.956,400.644C45.733,400.644 52.759,395.87 55.624,388.64L83.48,388.64C87.319,388.638 90.478,385.479 90.48,381.64L90.48,335.52L134,335.52L134,371C134.002,374.839 137.161,377.998 141,378L176.48,378L176.48,421.52L130.36,421.52C126.521,421.522 123.362,424.681 123.36,428.52L123.36,456.376C116.134,459.24 111.364,466.263 111.364,474.035C111.364,484.456 119.939,493.031 130.36,493.031C140.781,493.031 149.356,484.456 149.356,474.035C149.356,466.263 144.586,459.24 137.36,456.376L137.36,435.52L183.48,435.52C187.319,435.518 190.478,432.359 190.48,428.52L190.48,378L224.84,378L224.84,456.372C217.614,459.236 212.844,466.259 212.844,474.031C212.844,484.452 221.419,493.027 231.84,493.027C242.261,493.027 250.836,484.452 250.836,474.031C250.836,466.259 246.066,459.236 238.84,456.372L238.84,378L273.16,378L273.16,456.376C265.93,459.241 261.156,466.267 261.156,474.044C261.156,484.469 269.735,493.048 280.16,493.048C290.585,493.048 299.164,484.469 299.164,474.044C299.164,466.267 294.39,459.241 287.16,456.376L287.16,378L321.52,378L321.52,428.52C321.522,432.359 324.681,435.518 328.52,435.52L374.64,435.52L374.64,456.376C367.412,459.24 362.64,466.265 362.64,474.04C362.64,484.463 371.217,493.04 381.64,493.04C392.063,493.04 400.64,484.463 400.64,474.04C400.64,466.265 395.868,459.24 388.64,456.376L388.64,428.52C388.638,424.681 385.479,421.522 381.64,421.52L335.52,421.52L335.52,378L371,378C374.839,377.998 377.998,374.839 378,371L378,335.52L421.52,335.52L421.52,381.64C421.522,385.479 424.681,388.638 428.52,388.64L456.376,388.64C459.24,395.866 466.263,400.636 474.035,400.636C484.456,400.636 493.031,392.061 493.031,381.64C493.031,371.219 484.456,362.644 474.035,362.644C466.263,362.644 459.24,367.414 456.376,374.64L435.52,374.64L435.52,328.52C435.518,324.681 432.359,321.522 428.52,321.52L378,321.52L378,287.16L456.372,287.16C459.236,294.386 466.259,299.156 474.031,299.156C484.452,299.156 493.027,290.581 493.027,280.16C493.027,269.739 484.452,261.164 474.031,261.164C466.259,261.164 459.236,265.934 456.372,273.16L378,273.16L378,238.84ZM474,226.84C476.743,226.84 479,229.097 479,231.84C479,234.583 476.743,236.84 474,236.84C471.257,236.84 469,234.583 469,231.84C469,229.096 471.256,226.836 474,226.832L474,226.84ZM474,125.364C476.743,125.364 479,127.621 479,130.364C479,133.107 476.743,135.364 474,135.364C471.257,135.364 469,133.107 469,130.364C469,127.62 471.256,125.36 474,125.356L474,125.364ZM381.644,33C384.387,33 386.644,35.257 386.644,38C386.644,40.743 384.387,43 381.644,43C378.901,43 376.644,40.743 376.644,38C376.648,35.259 378.903,33.004 381.644,33ZM280.168,33C282.911,33 285.168,35.257 285.168,38C285.168,40.743 282.911,43 280.168,43C277.425,43 275.168,40.743 275.168,38C275.172,35.259 277.427,33.004 280.168,33ZM231.832,33C234.575,33 236.832,35.257 236.832,38C236.832,40.743 234.575,43 231.832,43C229.089,43 226.832,40.743 226.832,38C226.834,35.258 229.09,33.002 231.832,33ZM130.356,33C133.099,33 135.356,35.257 135.356,38C135.356,40.743 133.099,43 130.356,43C127.613,43 125.356,40.743 125.356,38C125.358,35.258 127.614,33.002 130.356,33ZM38,135.356C35.257,135.356 33,133.099 33,130.356C33,127.613 35.257,125.356 38,125.356C40.743,125.356 43,127.613 43,130.356C42.998,133.098 40.742,135.354 38,135.356ZM38,236.832C35.257,236.832 33,234.575 33,231.832C33,229.089 35.257,226.832 38,226.832C40.743,226.832 43,229.089 43,231.832C42.998,234.574 40.742,236.83 38,236.832ZM38,285.168C35.257,285.168 33,282.911 33,280.168C33,277.425 35.257,275.168 38,275.168C40.743,275.168 43,277.425 43,280.168C42.996,282.909 40.741,285.164 38,285.168ZM38,386.644C35.257,386.644 33,384.387 33,381.644C33,378.901 35.257,376.644 38,376.644C40.743,376.644 43,378.901 43,381.644C42.996,384.385 40.741,386.64 38,386.644ZM130.356,479C127.613,479 125.356,476.743 125.356,474C125.356,471.257 127.613,469 130.356,469C133.099,469 135.356,471.257 135.356,474C135.352,476.741 133.097,478.996 130.356,479ZM231.832,479C229.089,479 226.832,476.743 226.832,474C226.832,471.257 229.089,469 231.832,469C234.575,469 236.832,471.257 236.832,474C236.828,476.741 234.573,478.996 231.832,479ZM280.168,479C277.425,479 275.168,476.743 275.168,474C275.168,471.257 277.425,469 280.168,469C282.911,469 285.168,471.257 285.168,474C285.166,476.742 282.91,478.998 280.168,479ZM381.644,479C378.901,479 376.644,476.743 376.644,474C376.644,471.257 378.901,469 381.644,469C384.387,469 386.644,471.257 386.644,474C386.642,476.742 384.386,478.998 381.644,479ZM474,376.644C476.743,376.644 479,378.901 479,381.644C479,384.387 476.743,386.644 474,386.644C471.257,386.644 469,384.387 469,381.644C469.002,378.902 471.258,376.646 474,376.644ZM474,275.168C476.743,275.168 479,277.425 479,280.168C479,282.911 476.743,285.168 474,285.168C471.257,285.168 469,282.911 469,280.168C469.002,277.426 471.258,275.17 474,275.168ZM364,364L148,364L148,148L364,148L364,364Z" style="fill:rgb(15,177,210);fill-rule:nonzero;"/>
        <path d="M335,170L177,170C173.161,170.002 170.002,173.161 170,177L170,335C170.002,338.839 173.161,341.998 177,342L335,342C338.839,341.998 341.998,338.839 342,335L342,177C341.998,173.161 338.839,170.002 335,170ZM328,328L184,328L184,184L328,184L328,328Z" style="fill:rgb(15,177,210);fill-rule:nonzero;"/>
        <path d="M311,266.332C314.839,266.33 317.998,263.171 318,259.332L318,219.832C318,215.992 314.84,212.832 311,212.832C307.16,212.832 304,215.992 304,219.832L304,259.332C304.002,263.171 307.161,266.33 311,266.332Z" style="fill:rgb(15,177,210);fill-rule:nonzero;"/>
    </g>
</svg>
