<?xml version="1.0" encoding="UTF-8" standalone="no"?>
<!DOCTYPE svg PUBLIC "-//W3C//DTD SVG 1.1//EN" "http://www.w3.org/Graphics/SVG/1.1/DTD/svg11.dtd">
<svg width="100%" height="100%" viewBox="0 0 446 513" version="1.1" xmlns="http://www.w3.org/2000/svg" xmlns:xlink="http://www.w3.org/1999/xlink" xml:space="preserve" xmlns:serif="http://www.serif.com/" style="fill-rule:evenodd;clip-rule:evenodd;stroke-linejoin:round;stroke-miterlimit:2;">
    <g transform="matrix(1,0,0,1,-33.5,1.00098)">
        <g transform="matrix(1,0,0,1,33,-1)">
            <path d="M442.164,125.254L226.957,1.004C224.637,-0.336 221.777,-0.336 219.457,1.004L4.25,125.254C1.93,126.594 0.5,129.07 0.5,131.75L0.5,380.25C0.5,382.93 1.93,385.406 4.25,386.746L136.152,462.902C139.738,464.973 144.328,463.742 146.398,460.156C148.469,456.57 147.238,451.98 143.652,449.91L15.5,375.918L15.5,374.871C16.895,376.156 18.715,376.863 20.578,376.863C21.852,376.863 23.145,376.539 24.324,375.855L34.715,369.855C38.305,367.785 39.531,363.199 37.461,359.613C35.391,356.023 30.801,354.797 27.215,356.867L16.824,362.867C16.336,363.148 15.895,363.477 15.5,363.844L15.5,144.738L206.203,254.844C205.027,257.051 204.977,259.793 206.32,262.121C207.707,264.527 210.227,265.871 212.82,265.871C213.793,265.871 214.773,265.68 215.707,265.285L215.707,491.508L169.93,465.078C166.34,463.004 161.754,464.238 159.684,467.824C157.613,471.41 158.844,475.996 162.43,478.07L219.457,510.992C220.617,511.664 221.91,512 223.207,512C224.5,512 225.797,511.664 226.957,510.992L442.164,386.742C444.484,385.402 445.914,382.93 445.914,380.25L445.914,131.75C445.914,129.07 444.484,126.594 442.164,125.254ZM230.707,243.008L230.707,240.371C230.707,236.227 227.352,232.871 223.207,232.871C219.066,232.871 215.707,236.227 215.707,240.371L215.707,243.008L23,131.75L215.707,20.488L215.707,30.387C215.707,34.527 219.066,37.887 223.207,37.887C227.352,37.887 230.707,34.527 230.707,30.387L230.707,20.488L423.414,131.75L230.707,243.008ZM230.707,491.508L230.707,265.289C231.641,265.68 232.621,265.871 233.594,265.871C236.184,265.871 238.707,264.527 240.094,262.121C241.438,259.797 241.387,257.051 240.211,254.844L430.914,144.738L430.914,363.84C430.516,363.477 430.078,363.145 429.59,362.867L419.199,356.867C415.609,354.793 411.023,356.023 408.953,359.613C406.883,363.199 408.109,367.785 411.699,369.855L422.09,375.855C423.273,376.539 424.563,376.863 425.836,376.863C427.699,376.863 429.516,376.156 430.914,374.871L430.914,375.918L230.707,491.508Z" style="fill:rgb(15,177,210);fill-rule:nonzero;"/>
        </g>
        <g transform="matrix(1,0,0,1,33,-1)">
            <path d="M338.566,310.313L317.98,298.426C314.391,296.355 309.805,297.586 307.734,301.172C305.664,304.758 306.895,309.348 310.48,311.418L331.066,323.305C332.25,323.984 333.539,324.309 334.813,324.309C337.402,324.309 339.926,322.965 341.313,320.559C343.383,316.973 342.156,312.383 338.566,310.313Z" style="fill:rgb(15,177,210);fill-rule:nonzero;"/>
        </g>
        <g transform="matrix(1,0,0,1,33,-1)">
            <path d="M287.957,281.094L267.371,269.207C263.785,267.137 259.195,268.363 257.125,271.953C255.055,275.539 256.285,280.129 259.871,282.199L280.457,294.086C281.641,294.766 282.93,295.09 284.199,295.09C286.793,295.09 289.313,293.746 290.703,291.34C292.773,287.754 291.543,283.164 287.957,281.094Z" style="fill:rgb(15,177,210);fill-rule:nonzero;"/>
        </g>
        <g transform="matrix(1,0,0,1,33,-1)">
            <path d="M389.176,339.531L368.59,327.645C365,325.574 360.414,326.805 358.344,330.391C356.273,333.977 357.504,338.566 361.09,340.637L381.676,352.523C382.859,353.203 384.148,353.527 385.418,353.527C388.012,353.527 390.531,352.184 391.922,349.777C393.992,346.191 392.762,341.602 389.176,339.531Z" style="fill:rgb(15,177,210);fill-rule:nonzero;"/>
        </g>
        <g transform="matrix(1,0,0,1,33,-1)">
            <path d="M165.957,294.086L186.543,282.199C190.129,280.129 191.359,275.539 189.289,271.953C187.219,268.367 182.629,267.137 179.043,269.207L158.457,281.094C154.871,283.164 153.641,287.754 155.711,291.34C157.102,293.746 159.621,295.09 162.215,295.09C163.484,295.09 164.773,294.766 165.957,294.086Z" style="fill:rgb(15,177,210);fill-rule:nonzero;"/>
        </g>
        <g transform="matrix(1,0,0,1,33,-1)">
            <path d="M77.824,327.648L57.238,339.535C53.652,341.605 52.422,346.191 54.492,349.777C55.883,352.184 58.402,353.531 60.996,353.531C62.27,353.531 63.559,353.203 64.738,352.523L85.324,340.637C88.91,338.566 90.141,333.98 88.07,330.391C85.996,326.805 81.41,325.578 77.824,327.648Z" style="fill:rgb(15,177,210);fill-rule:nonzero;"/>
        </g>
        <g transform="matrix(1,0,0,1,33,-1)">
            <path d="M128.434,298.43L107.848,310.313C104.262,312.387 103.031,316.973 105.102,320.559C106.492,322.965 109.012,324.309 111.605,324.309C112.875,324.309 114.168,323.984 115.348,323.305L135.934,311.418C139.52,309.348 140.75,304.762 138.68,301.172C136.609,297.586 132.02,296.355 128.434,298.43Z" style="fill:rgb(15,177,210);fill-rule:nonzero;"/>
        </g>
        <g transform="matrix(1,0,0,1,33,-1)">
            <path d="M223.207,174.434C219.066,174.434 215.707,177.789 215.707,181.934L215.707,205.703C215.707,209.844 219.066,213.203 223.207,213.203C227.352,213.203 230.707,209.844 230.707,205.703L230.707,181.934C230.707,177.789 227.348,174.434 223.207,174.434Z" style="fill:rgb(15,177,210);fill-rule:nonzero;"/>
        </g>
        <g transform="matrix(1,0,0,1,33,-1)">
            <path d="M223.207,57.555C219.066,57.555 215.707,60.914 215.707,65.055L215.707,88.824C215.707,92.969 219.066,96.324 223.207,96.324C227.352,96.324 230.707,92.969 230.707,88.824L230.707,65.055C230.707,60.914 227.348,57.555 223.207,57.555Z" style="fill:rgb(15,177,210);fill-rule:nonzero;"/>
        </g>
        <g transform="matrix(1,0,0,1,33,-1)">
            <path d="M223.207,115.992C219.066,115.992 215.707,119.352 215.707,123.492L215.707,147.262C215.707,151.406 219.066,154.762 223.207,154.762C227.352,154.762 230.707,151.406 230.707,147.262L230.707,123.492C230.707,119.352 227.348,115.992 223.207,115.992Z" style="fill:rgb(15,177,210);fill-rule:nonzero;"/>
        </g>
    </g>
</svg>
