<?xml version="1.0" encoding="UTF-8" standalone="no"?>
<!DOCTYPE svg PUBLIC "-//W3C//DTD SVG 1.1//EN" "http://www.w3.org/Graphics/SVG/1.1/DTD/svg11.dtd">
<svg width="100%" height="100%" viewBox="0 0 512 512" version="1.1" xmlns="http://www.w3.org/2000/svg" xmlns:xlink="http://www.w3.org/1999/xlink" xml:space="preserve" xmlns:serif="http://www.serif.com/" style="fill-rule:evenodd;clip-rule:evenodd;stroke-linejoin:round;stroke-miterlimit:2;">
    <path d="M498.343,234.343L480,252.686L480,88C480,74.767 469.233,64 456,64L440,64L440,32C440,14.355 425.645,-0 408,-0C390.355,-0 376,14.355 376,32L376,64L95.321,64C91.5,41.329 71.741,24 48,24C21.532,24 0,45.533 0,72L0,368C0,394.467 21.532,416 48,416L316.686,416L298.343,434.343C293.321,439.367 296.88,448 304,448L504,448C508.418,448 512,444.418 512,440L512,240C512,232.891 503.377,229.312 498.343,234.343ZM424,224L392,224L392,48L424,48L424,224ZM419.867,240L408,267.691L396.133,240L419.867,240ZM408,16C416.822,16 424,23.178 424,32L392,32C392,23.178 399.178,16 408,16ZM48,40C65.645,40 80,54.355 80,72L80,332.261C61.749,315.902 34.234,315.918 16,332.261L16,72C16,54.355 30.355,40 48,40ZM48,400C30.355,400 16,385.645 16,368C16,350.355 30.355,336 48,336C65.645,336 80,350.355 80,368C80,372.418 83.582,376 88,376C92.418,376 96,372.418 96,368L96,80L376,80L376,231.994C375.996,234.847 375.501,232.477 400.646,291.151C403.409,297.598 412.586,297.607 415.353,291.151C445.275,221.333 438.452,237.629 439.354,235.149C440.307,232.93 440,242.602 440,80L456,80C460.411,80 464,83.589 464,88L464,268.686L332.686,400L48,400ZM496,432L323.313,432L359.999,395.314C362.478,397.793 364.165,400 367.999,400C375.059,400 378.714,391.401 373.656,386.343L371.314,384L384,371.314C386.479,373.793 388.166,376 392,376C399.06,376 402.715,367.401 397.657,362.343L395.314,360L408,347.314C410.479,349.793 412.166,352 416,352C423.06,352 426.715,343.401 421.657,338.343L419.314,336L432,323.314C434.479,325.793 436.166,328 440,328C447.06,328 450.715,319.401 445.657,314.343L443.314,312L456,299.314C458.479,301.793 460.166,304 464,304C471.06,304 474.715,295.401 469.657,290.343L467.314,288L496,259.314L496,432Z" style="fill:rgb(15,177,210);fill-rule:nonzero;"/>
    <path d="M466.343,330.343L394.343,402.343C389.321,407.367 392.88,416 400,416L472,416C476.418,416 480,412.418 480,408L480,336C480,328.897 471.378,325.307 466.343,330.343ZM464,400L419.313,400L464,355.313L464,400Z" style="fill:rgb(15,177,210);fill-rule:nonzero;"/>
    <path d="M216,432L152,432C129.944,432 112,449.944 112,472C112,494.056 129.944,512 152,512L216,512C238.056,512 256,494.056 256,472C256,449.944 238.056,432 216,432ZM144,449.371L144,494.629C122.728,487.087 122.709,456.92 144,449.371ZM160,448L208,448L208,496L160,496L160,448ZM224,494.629L224,449.371C245.272,456.913 245.291,487.08 224,494.629Z" style="fill:rgb(15,177,210);fill-rule:nonzero;"/>
</svg>
