<?xml version="1.0" encoding="UTF-8" standalone="no"?>
<!DOCTYPE svg PUBLIC "-//W3C//DTD SVG 1.1//EN" "http://www.w3.org/Graphics/SVG/1.1/DTD/svg11.dtd">
<svg width="100%" height="100%" viewBox="0 0 479 383" version="1.1" xmlns="http://www.w3.org/2000/svg" xmlns:xlink="http://www.w3.org/1999/xlink" xml:space="preserve" xmlns:serif="http://www.serif.com/" style="fill-rule:evenodd;clip-rule:evenodd;stroke-linejoin:round;stroke-miterlimit:2;">
    <g transform="matrix(1,0,0,1,0,-48)">
        <path d="M231.5,120C156.785,120 96,180.785 96,255.5C96,330.215 156.785,391 231.5,391C306.215,391 367,330.215 367,255.5C367,180.785 306.215,120 231.5,120ZM231.5,376C165.056,376 111,321.944 111,255.5C111,189.056 165.056,135 231.5,135C297.944,135 352,189.056 352,255.5C352,321.944 297.944,376 231.5,376Z" style="fill:rgb(15,177,210);fill-rule:nonzero;"/>
        <path d="M231.5,160C178.841,160 136,202.841 136,255.5C136,308.159 178.841,351 231.5,351C284.159,351 327,308.159 327,255.5C327,202.841 284.159,160 231.5,160ZM231.5,336C187.112,336 151,299.888 151,255.5C151,211.112 187.112,175 231.5,175C275.888,175 312,211.112 312,255.5C312,299.888 275.888,336 231.5,336Z" style="fill:rgb(15,177,210);fill-rule:nonzero;"/>
        <path d="M407.5,120C390.131,120 376,134.131 376,151.5C376,168.869 390.131,183 407.5,183C424.869,183 439,168.869 439,151.5C439,134.131 424.869,120 407.5,120ZM407.5,168C398.402,168 391,160.598 391,151.5C391,142.402 398.402,135 407.5,135C416.598,135 424,142.402 424,151.5C424,160.598 416.598,168 407.5,168Z" style="fill:rgb(15,177,210);fill-rule:nonzero;"/>
        <path d="M423.5,80L151,80L151,71.5C151,58.542 140.458,48 127.5,48L95.5,48C82.542,48 72,58.542 72,71.5L72,80L55.5,80C24.897,80 0,104.897 0,135.5L0,375.5C0,406.103 24.897,431 55.5,431L423.5,431C454.103,431 479,406.103 479,375.5L479,135.5C479,104.897 454.103,80 423.5,80ZM87,71.5C87,66.813 90.813,63 95.5,63L127.5,63C132.187,63 136,66.813 136,71.5L136,80L87,80L87,71.5ZM464,375.5C464,397.832 445.832,416 423.5,416L55.5,416C33.168,416 15,397.832 15,375.5L15,135.5C15,113.168 33.168,95 55.5,95L423.5,95C445.832,95 464,113.168 464,135.5L464,375.5Z" style="fill:rgb(15,177,210);fill-rule:nonzero;"/>
        <path d="M231.5,192C227.358,192 224,195.357 224,199.5C224,203.643 227.358,207 231.5,207C258.243,207 280,228.757 280,255.5C280,259.643 283.358,263 287.5,263C291.642,263 295,259.643 295,255.5C295,220.486 266.514,192 231.5,192Z" style="fill:rgb(15,177,210);fill-rule:nonzero;"/>
    </g>
</svg>
